<svg xmlns="http://www.w3.org/2000/svg" xmlns:xlink="http://www.w3.org/1999/xlink" xmlns:lucid="lucid" width="1201.3" height="750"><g transform="translate(-7.990831563489536 -20)" lucid:page-tab-id="0_0"><path d="M239.3 148c0 6.63-26.87 12-60 12-33.14 0-60-5.37-60-12V52c0-6.63 26.86-12 60-12 33.13 0 60 5.37 60 12z" stroke="#000" stroke-width="2" fill="#fff"/><path d="M239.3 52c0 6.63-26.87 12-60 12-33.14 0-60-5.37-60-12" stroke="#000" stroke-width="2" fill="none"/><use xlink:href="#a" transform="matrix(1,0,0,1,124.2925248939249,69) translate(32.574999999999996 35.9)"/><use xlink:href="#b" transform="matrix(1,0,0,1,124.2925248939249,69) translate(16.525 57.5)"/><path d="M699.3 148c0 6.63-26.87 12-60 12-33.14 0-60-5.37-60-12V52c0-6.63 26.86-12 60-12 33.13 0 60 5.37 60 12z" stroke="#000" stroke-width="2" fill="#fff"/><path d="M699.3 52c0 6.63-26.87 12-60 12-33.14 0-60-5.37-60-12" stroke="#000" stroke-width="2" fill="none"/><use xlink:href="#c" transform="matrix(1,0,0,1,584.2925248939249,69) translate(14.549999999999997 35.9)"/><use xlink:href="#d" transform="matrix(1,0,0,1,584.2925248939249,69) translate(2.124999999999993 57.5)"/><use xlink:href="#e" transform="matrix(1,0,0,1,584.2925248939249,69) translate(49.975 57.5)"/><path d="M329.3 40h144v102c-24.06-17.03-39.03-17.03-48.1-17.03-14.4 0-33.56 17.03-47.96 17.03-8.92 0-24.04 0-47.95-17.03z" stroke="#000" stroke-width="2" fill="#fff"/><path d="M337.3 49h144v102c-24.06-17.03-39.03-17.03-48.1-17.03-14.4 0-33.56 17.03-47.96 17.03-8.92 0-24.04 0-47.95-17.03z" stroke="#000" stroke-width="2" fill="#fff"/><path d="M345.3 58h144v102c-24.06-17.03-39.03-17.03-48.1-17.03-14.4 0-33.56 17.03-47.96 17.03-8.92 0-24.04 0-47.95-17.03z" stroke="#000" stroke-width="2" fill="#fff"/><use xlink:href="#f" transform="matrix(1,0,0,1,350.2925248939249,63) translate(4.074999999999996 40.18125)"/><path d="M279.3 200h220v182.8h-220z" fill="#fff" fill-opacity="0"/><path d="M301.3 200h-22v182.8h22" stroke="#000" stroke-width="2" fill="none"/><use xlink:href="#g" transform="matrix(1,0,0,1,298.0425248939249,205) translate(14.85 46.89999999999999)"/><use xlink:href="#h" transform="matrix(1,0,0,1,298.0425248939249,205) translate(36 46.89999999999999)"/><use xlink:href="#i" transform="matrix(1,0,0,1,298.0425248939249,205) translate(73.95 46.89999999999999)"/><use xlink:href="#g" transform="matrix(1,0,0,1,298.0425248939249,205) translate(14.85 68.5)"/><use xlink:href="#j" transform="matrix(1,0,0,1,298.0425248939249,205) translate(36 68.5)"/><use xlink:href="#k" transform="matrix(1,0,0,1,298.0425248939249,205) translate(98.9 68.5)"/><use xlink:href="#l" transform="matrix(1,0,0,1,298.0425248939249,205) translate(36 90.1)"/><use xlink:href="#m" transform="matrix(1,0,0,1,298.0425248939249,205) translate(135.85000000000002 90.1)"/><use xlink:href="#n" transform="matrix(1,0,0,1,298.0425248939249,205) translate(36 111.70000000000002)"/><use xlink:href="#g" transform="matrix(1,0,0,1,298.0425248939249,205) translate(14.85 133.3)"/><use xlink:href="#o" transform="matrix(1,0,0,1,298.0425248939249,205) translate(36 133.3)"/><use xlink:href="#p" transform="matrix(1,0,0,1,298.0425248939249,205) translate(78 133.3)"/><use xlink:href="#q" transform="matrix(1,0,0,1,298.0425248939249,205) translate(125.55 133.3)"/><path d="M1169.3 528c0 6.63-26.87 12-60 12-33.14 0-60-5.37-60-12v-96c0-6.63 26.86-12 60-12 33.13 0 60 5.37 60 12z" stroke="#000" stroke-width="2" fill="#fff"/><path d="M1169.3 432c0 6.63-26.87 12-60 12-33.14 0-60-5.37-60-12" stroke="#000" stroke-width="2" fill="none"/><use xlink:href="#r" transform="matrix(1,0,0,1,1054.2925248939248,448.99999999999994) translate(12.524999999999999 35.9)"/><use xlink:href="#s" transform="matrix(1,0,0,1,1054.2925248939248,448.99999999999994) translate(67.475 35.9)"/><use xlink:href="#t" transform="matrix(1,0,0,1,1054.2925248939248,448.99999999999994) translate(43.525 57.5)"/><path d="M699.3 420h160v120h-160z" stroke="#000" stroke-width="2" fill="#fff"/><path d="M715.3 420v120m128-120v120" stroke="#000" stroke-width="2" fill="none"/><use xlink:href="#u" transform="matrix(1,0,0,1,724.2925248939249,424.99999999999994) translate(38.525 37)"/><use xlink:href="#v" transform="matrix(1,0,0,1,724.2925248939249,424.99999999999994) translate(-4.875000000000007 58.6)"/><use xlink:href="#w" transform="matrix(1,0,0,1,724.2925248939249,424.99999999999994) translate(13.624999999999993 80.20000000000002)"/><path d="M279.3 420c26.55 19.92 43.35 19.92 53.27 19.92 16 0 37.28-19.92 53.28-19.92 10.08 0 26.72 0 53.44 19.92V540c-26.73-20.04-43.37-20.04-53.45-20.04-16 0-37.28 20.04-53.28 20.04-9.92 0-26.72 0-53.28-20.04z" stroke="#000" stroke-width="2" fill="#fff"/><use xlink:href="#x" transform="matrix(1,0,0,1,284.2925248939249,424.99999999999994) translate(50.525 59.0875)"/><path d="M789.3 40h144v102c-24.06-17.03-39.03-17.03-48.1-17.03-14.4 0-33.56 17.03-47.96 17.03-8.92 0-24.04 0-47.95-17.03z" stroke="#000" stroke-width="2" fill="#fff"/><path d="M797.3 49h144v102c-24.06-17.03-39.03-17.03-48.1-17.03-14.4 0-33.56 17.03-47.96 17.03-8.92 0-24.04 0-47.95-17.03z" stroke="#000" stroke-width="2" fill="#fff"/><path d="M805.3 58h144v102c-24.06-17.03-39.03-17.03-48.1-17.03-14.4 0-33.56 17.03-47.96 17.03-8.92 0-24.04 0-47.95-17.03z" stroke="#000" stroke-width="2" fill="#fff"/><use xlink:href="#y" transform="matrix(1,0,0,1,810.2925248939249,63) translate(2.4749999999999943 40.18125)"/><use xlink:href="#z" transform="matrix(1,0,0,1,810.2925248939249,63) translate(56.375 40.18125)"/><path d="M1159.3 148c0 6.63-26.87 12-60 12-33.14 0-60-5.37-60-12V52c0-6.63 26.86-12 60-12 33.13 0 60 5.37 60 12z" stroke="#000" stroke-width="2" fill="#fff"/><path d="M1159.3 52c0 6.63-26.87 12-60 12-33.14 0-60-5.37-60-12" stroke="#000" stroke-width="2" fill="none"/><use xlink:href="#A" transform="matrix(1,0,0,1,1044.292524893925,69) translate(28.525 35.9)"/><use xlink:href="#B" transform="matrix(1,0,0,1,1044.292524893925,69) translate(26.049999999999997 57.5)"/><path d="M699.3 200l20-20v10h310v-10l20 20-20 20v-10h-310v10z" stroke="#000" stroke-width="2" fill="#fff"/><use xlink:href="#C" transform="matrix(1,0,0,1,704.2925248939249,185) translate(103.07499999999999 18.6)"/><use xlink:href="#D" transform="matrix(1,0,0,1,704.2925248939249,185) translate(171.975 18.6)"/><path d="M1109.27 199.97L896.9 393.87l5.04 5.52-20-1.98-.15-20.1 5.03 5.52 212.37-193.9zM642.38 183.9l91.66 199.54 6.1-2.8-7.16 16.6-17.26-5.38 6.1-2.8-91.65-199.54zM869.3 460h152v-10l18 20-18 20v-10h-152zM839.3 728c0 6.63-26.87 12-60 12-33.14 0-60-5.37-60-12v-96c0-6.63 26.86-12 60-12 33.13 0 60 5.37 60 12z" stroke="#000" stroke-width="2" fill="#fff"/><path d="M839.3 632c0 6.63-26.87 12-60 12-33.14 0-60-5.37-60-12" stroke="#000" stroke-width="2" fill="none"/><use xlink:href="#E" transform="matrix(1,0,0,1,724.2925248939249,649) translate(28 35.9)"/><use xlink:href="#b" transform="matrix(1,0,0,1,724.2925248939249,649) translate(16.525 57.5)"/><path d="M499.3 630h140v100h-140z" stroke="#000" stroke-width="2" fill="#fff"/><path d="M513.3 630v100m112-100v100" stroke="#000" stroke-width="2" fill="none"/><use xlink:href="#F" transform="matrix(1,0,0,1,521.7925248939249,635) translate(-3.4250000000000043 27)"/><use xlink:href="#m" transform="matrix(1,0,0,1,521.7925248939249,635) translate(32.5 48.6)"/><use xlink:href="#G" transform="matrix(1,0,0,1,521.7925248939249,635) translate(7.575000000000003 70.2)"/><path d="M269.3 610h171v133h-171z" stroke="#000" stroke-width="2" fill="#fff"/><path d="M278.3 617h171v133h-171z" stroke="#000" stroke-width="2" fill="#fff"/><use xlink:href="#E" transform="matrix(1,0,0,1,291.2925248939249,610) translate(43 62.8)"/><use xlink:href="#H" transform="matrix(1,0,0,1,291.2925248939249,610) translate(19.549999999999997 84.4)"/><path d="M241.3 100h68.5" stroke="#000" stroke-width="2" fill="none"/><path d="M241.32 101h-1.03v-2h1.02z"/><path d="M325.06 100l-14.27 4.64v-9.28z" stroke="#000" stroke-width="2"/><path d="M491.3 100h68.5" stroke="#000" stroke-width="2" fill="none"/><path d="M491.32 101h-1.03v-2h1.02z"/><path d="M575.06 100l-14.27 4.64v-9.28z" stroke="#000" stroke-width="2"/><path d="M701.3 100h68.5" stroke="#000" stroke-width="2" fill="none"/><path d="M701.32 101h-1.03v-2h1.02z"/><path d="M785.06 100l-14.27 4.64v-9.28z" stroke="#000" stroke-width="2"/><path d="M951.3 100h68.5" stroke="#000" stroke-width="2" fill="none"/><path d="M951.32 101h-1.03v-2h1.02z"/><path d="M1035.06 100l-14.27 4.64v-9.28z" stroke="#000" stroke-width="2"/><path d="M651.3 480h28.5" stroke="#000" stroke-width="2" fill="none"/><path d="M651.32 481h-1.03v-2h1.02z"/><path d="M695.06 480l-14.27 4.64v-9.28z" stroke="#000" stroke-width="2"/><path d="M779.3 542v58.5" stroke="#000" stroke-width="2" fill="none"/><path d="M780.3 542.03h-2V541h2z"/><path d="M779.3 615.76l-4.64-14.26h9.27z" stroke="#000" stroke-width="2"/><path d="M717.3 680h-58.5" stroke="#000" stroke-width="2" fill="none"/><path d="M718.3 681h-1.03v-2h1.02z"/><path d="M643.53 680l14.26-4.64v9.28z" stroke="#000" stroke-width="2"/><path d="M497.3 680h-28.5" stroke="#000" stroke-width="2" fill="none"/><path d="M498.3 681h-1.03v-2h1.02z"/><path d="M453.53 680l14.26-4.64v9.28z" stroke="#000" stroke-width="2"/><path d="M489.3 420h144v102c-24.06-17.03-39.03-17.03-48.1-17.03-14.4 0-33.56 17.03-47.96 17.03-8.92 0-24.04 0-47.95-17.03z" stroke="#000" stroke-width="2" fill="#fff"/><path d="M497.3 429h144v102c-24.06-17.03-39.03-17.03-48.1-17.03-14.4 0-33.56 17.03-47.96 17.03-8.92 0-24.04 0-47.95-17.03z" stroke="#000" stroke-width="2" fill="#fff"/><path d="M505.3 438h144v102c-24.06-17.03-39.03-17.03-48.1-17.03-14.4 0-33.56 17.03-47.96 17.03-8.92 0-24.04 0-47.95-17.03z" stroke="#000" stroke-width="2" fill="#fff"/><g><use xlink:href="#f" transform="matrix(1,0,0,1,510.2925248939249,442.99999999999994) translate(4.074999999999996 40.18125)"/></g><path d="M441.3 481.68h28.5" stroke="#000" stroke-width="2" fill="none"/><path d="M441.32 482.68h-1.03v-2h1.02z"/><path d="M485.06 481.68l-14.27 4.64v-9.27z" stroke="#000" stroke-width="2"/><path d="M149.3 410h80v130h-80z" fill="none"/><path d="M229.3 540c-4.5 0-8.13-3.64-8.13-8.13v-48.75c0-4.48-3.64-8.12-8.13-8.12 4.5 0 8.13-3.64 8.13-8.13v-48.75c0-4.48 3.64-8.12 8.12-8.12" stroke="#000" stroke-width="2" fill="none"/><g><use xlink:href="#I" transform="matrix(1,0,0,1,154.29252489392488,415) translate(23.049999999999997 31.19999999999999)"/><use xlink:href="#J" transform="matrix(1,0,0,1,154.29252489392488,415) translate(23.049999999999997 52.79999999999999)"/><use xlink:href="#K" transform="matrix(1,0,0,1,154.29252489392488,415) translate(23.049999999999997 74.39999999999999)"/><use xlink:href="#L" transform="matrix(1,0,0,1,154.29252489392488,415) translate(23.049999999999997 96)"/></g><g><path d="M127.2 179.6l18 17.8-8.95.04 2.6 454.6 8.95-.05-17.8 18-18-17.8 8.95-.05-2.6-454.6-8.95.05z" stroke="#000" stroke-width="2" fill="#fff"/></g><path d="M168.6 610h80v130h-80z" fill="none"/><path d="M248.6 740c-4.5 0-8.13-3.64-8.13-8.13v-48.75c0-4.48-3.63-8.12-8.12-8.12 4.5 0 8.12-3.64 8.12-8.13v-48.75c0-4.48 3.64-8.12 8.13-8.12" stroke="#000" stroke-width="2" fill="none"/><g><use xlink:href="#M" transform="matrix(1,0,0,1,173.5983066695646,615) translate(-14.5 52.8)"/><use xlink:href="#N" transform="matrix(1,0,0,1,173.5983066695646,615) translate(-25.85000000000001 74.4)"/></g><path d="M119.3 265.94h240v60h-240z" stroke="#000" stroke-opacity="0" stroke-width="2" fill="#fff" fill-opacity="0"/><g><use xlink:href="#O" transform="matrix(1,0,0,1,124.29252489388455,270.94103204773273) translate(98.525 30.025)"/></g><path d="M28 377.77h140.6v94.05H28z" fill="#fff" fill-opacity="0"/><g><use xlink:href="#P" transform="matrix(1,0,0,1,32.990831563489536,382.7659620223382) translate(0 14.4)"/><use xlink:href="#Q" transform="matrix(1,0,0,1,32.990831563489536,382.7659620223382) translate(37.95 14.4)"/><use xlink:href="#R" transform="matrix(1,0,0,1,32.990831563489536,382.7659620223382) translate(0 36)"/><use xlink:href="#S" transform="matrix(1,0,0,1,32.990831563489536,382.7659620223382) translate(0 57.6)"/><use xlink:href="#T" transform="matrix(1,0,0,1,32.990831563489536,382.7659620223382) translate(5 57.6)"/></g><path d="M760 260h160v40H760z" fill="#fff" fill-opacity="0"/><g><use xlink:href="#U" transform="matrix(1,0,0,1,765,265) translate(0 14.4)"/><use xlink:href="#V" transform="matrix(1,0,0,1,765,265) translate(86.85000000000001 14.4)"/><use xlink:href="#W" transform="matrix(1,0,0,1,765,265) translate(0 36)"/><use xlink:href="#X" transform="matrix(1,0,0,1,765,265) translate(32.95 36)"/><use xlink:href="#Y" transform="matrix(1,0,0,1,765,265) translate(43.900000000000006 36)"/></g><path d="M1029.3 610c26.55 19.92 43.35 19.92 53.27 19.92 16 0 37.28-19.92 53.28-19.92 10.08 0 26.72 0 53.44 19.92V730c-26.73-20.04-43.37-20.04-53.45-20.04-16 0-37.28 20.04-53.28 20.04-9.92 0-26.72 0-53.28-20.04z" stroke="#000" stroke-width="2" fill="#fff"/><g><use xlink:href="#r" transform="matrix(1,0,0,1,1034.2925248939248,615) translate(20.574999999999996 48.775)"/><use xlink:href="#Z" transform="matrix(1,0,0,1,1034.2925248939248,615) translate(75.525 48.775)"/><use xlink:href="#aa" transform="matrix(1,0,0,1,1034.2925248939248,615) translate(58.525 70.375)"/></g><g><path d="M1107.2 540v66.02h7.94l-15.85 14.26-15.85-14.26h7.92V540z" stroke="#000" stroke-width="2" fill="#fff"/></g><defs><path d="M30 0v-248h187v28H63v79h144v27H63v87h162V0H30" id="ab"/><path d="M210-169c-67 3-38 105-44 169h-31v-121c0-29-5-50-35-48C34-165 62-65 56 0H25l-1-190h30c1 10-1 24 2 32 10-44 99-50 107 0 11-21 27-35 58-36 85-2 47 119 55 194h-31v-121c0-29-5-49-35-48" id="ac"/><path d="M141-36C126-15 110 5 73 4 37 3 15-17 15-53c-1-64 63-63 125-63 3-35-9-54-41-54-24 1-41 7-42 31l-33-3c5-37 33-52 76-52 45 0 72 20 72 64v82c-1 20 7 32 28 27v20c-31 9-61-2-59-35zM48-53c0 20 12 33 32 33 41-3 63-29 60-74-43 2-92-5-92 41" id="ad"/><path d="M24-231v-30h32v30H24zM24 0v-190h32V0H24" id="ae"/><path d="M24 0v-261h32V0H24" id="af"/><g id="a"><use transform="matrix(0.05,0,0,0.05,0,0)" xlink:href="#ab"/><use transform="matrix(0.05,0,0,0.05,12,0)" xlink:href="#ac"/><use transform="matrix(0.05,0,0,0.05,26.950000000000003,0)" xlink:href="#ad"/><use transform="matrix(0.05,0,0,0.05,36.95,0)" xlink:href="#ae"/><use transform="matrix(0.05,0,0,0.05,40.900000000000006,0)" xlink:href="#af"/></g><path d="M30-248c118-7 216 8 213 122C240-48 200 0 122 0H30v-248zM63-27c89 8 146-16 146-99s-60-101-146-95v194" id="ag"/><path d="M59-47c-2 24 18 29 38 22v24C64 9 27 4 27-40v-127H5v-23h24l9-43h21v43h35v23H59v120" id="ah"/><path d="M115-194c53 0 69 39 70 98 0 66-23 100-70 100C84 3 66-7 56-30L54 0H23l1-261h32v101c10-23 28-34 59-34zm-8 174c40 0 45-34 45-75 0-40-5-75-45-74-42 0-51 32-51 76 0 43 10 73 51 73" id="ai"/><path d="M135-143c-3-34-86-38-87 0 15 53 115 12 119 90S17 21 10-45l28-5c4 36 97 45 98 0-10-56-113-15-118-90-4-57 82-63 122-42 12 7 21 19 24 35" id="aj"/><path d="M100-194c63 0 86 42 84 106H49c0 40 14 67 53 68 26 1 43-12 49-29l28 8c-11 28-37 45-77 45C44 4 14-33 15-96c1-61 26-98 85-98zm52 81c6-60-76-77-97-28-3 7-6 17-6 28h103" id="ak"/><g id="b"><use transform="matrix(0.05,0,0,0.05,0,0)" xlink:href="#ag"/><use transform="matrix(0.05,0,0,0.05,12.950000000000001,0)" xlink:href="#ad"/><use transform="matrix(0.05,0,0,0.05,22.950000000000003,0)" xlink:href="#ah"/><use transform="matrix(0.05,0,0,0.05,27.950000000000003,0)" xlink:href="#ad"/><use transform="matrix(0.05,0,0,0.05,37.95,0)" xlink:href="#ai"/><use transform="matrix(0.05,0,0,0.05,47.95,0)" xlink:href="#ad"/><use transform="matrix(0.05,0,0,0.05,57.95,0)" xlink:href="#aj"/><use transform="matrix(0.05,0,0,0.05,66.95,0)" xlink:href="#ak"/></g><path d="M127-220V0H93v-220H8v-28h204v28h-85" id="al"/><path d="M100-194c62-1 85 37 85 99 1 63-27 99-86 99S16-35 15-95c0-66 28-99 85-99zM99-20c44 1 53-31 53-75 0-43-8-75-51-75s-53 32-53 75 10 74 51 75" id="am"/><path d="M143 0L79-87 56-68V0H24v-261h32v163l83-92h37l-77 82L181 0h-38" id="an"/><path d="M117-194c89-4 53 116 60 194h-32v-121c0-31-8-49-39-48C34-167 62-67 57 0H25l-1-190h30c1 10-1 24 2 32 11-22 29-35 61-36" id="ao"/><path d="M85-194c31 0 48 13 60 33l-1-100h32l1 261h-30c-2-10 0-23-3-31C134-8 116 4 85 4 32 4 16-35 15-94c0-66 23-100 70-100zm9 24c-40 0-46 34-46 75 0 40 6 74 45 74 42 0 51-32 51-76 0-42-9-74-50-73" id="ap"/><g id="c"><use transform="matrix(0.05,0,0,0.05,0,0)" xlink:href="#al"/><use transform="matrix(0.05,0,0,0.05,8.950000000000001,0)" xlink:href="#am"/><use transform="matrix(0.05,0,0,0.05,18.950000000000003,0)" xlink:href="#an"/><use transform="matrix(0.05,0,0,0.05,27.950000000000003,0)" xlink:href="#ak"/><use transform="matrix(0.05,0,0,0.05,37.95,0)" xlink:href="#ao"/><use transform="matrix(0.05,0,0,0.05,47.95,0)" xlink:href="#ae"/><use transform="matrix(0.05,0,0,0.05,51.900000000000006,0)" xlink:href="#aj"/><use transform="matrix(0.05,0,0,0.05,60.900000000000006,0)" xlink:href="#ak"/><use transform="matrix(0.05,0,0,0.05,70.9,0)" xlink:href="#ap"/></g><g id="d"><use transform="matrix(0.05,0,0,0.05,0,0)" xlink:href="#ak"/><use transform="matrix(0.05,0,0,0.05,10,0)" xlink:href="#ac"/><use transform="matrix(0.05,0,0,0.05,24.950000000000003,0)" xlink:href="#ad"/><use transform="matrix(0.05,0,0,0.05,34.95,0)" xlink:href="#ae"/><use transform="matrix(0.05,0,0,0.05,38.900000000000006,0)" xlink:href="#af"/></g><path d="M212-179c-10-28-35-45-73-45-59 0-87 40-87 99 0 60 29 101 89 101 43 0 62-24 78-52l27 14C228-24 195 4 139 4 59 4 22-46 18-125c-6-104 99-153 187-111 19 9 31 26 39 46" id="aq"/><path d="M114-163C36-179 61-72 57 0H25l-1-190h30c1 12-1 29 2 39 6-27 23-49 58-41v29" id="ar"/><path d="M115-194c55 1 70 41 70 98S169 2 115 4C84 4 66-9 55-30l1 105H24l-1-265h31l2 30c10-21 28-34 59-34zm-8 174c40 0 45-34 45-75s-6-73-45-74c-42 0-51 32-51 76 0 43 10 73 51 73" id="as"/><path d="M84 4C-5 8 30-112 23-190h32v120c0 31 7 50 39 49 72-2 45-101 50-169h31l1 190h-30c-1-10 1-25-2-33-11 22-28 36-60 37" id="at"/><g id="e"><use transform="matrix(0.05,0,0,0.05,0,0)" xlink:href="#aq"/><use transform="matrix(0.05,0,0,0.05,12.950000000000001,0)" xlink:href="#am"/><use transform="matrix(0.05,0,0,0.05,22.950000000000003,0)" xlink:href="#ar"/><use transform="matrix(0.05,0,0,0.05,28.900000000000002,0)" xlink:href="#as"/><use transform="matrix(0.05,0,0,0.05,38.900000000000006,0)" xlink:href="#at"/><use transform="matrix(0.05,0,0,0.05,48.900000000000006,0)" xlink:href="#aj"/></g><path d="M30-248c87 1 191-15 191 75 0 78-77 80-158 76V0H30v-248zm33 125c57 0 124 11 124-50 0-59-68-47-124-48v98" id="au"/><path d="M96-169c-40 0-48 33-48 73s9 75 48 75c24 0 41-14 43-38l32 2c-6 37-31 61-74 61-59 0-76-41-82-99-10-93 101-131 147-64 4 7 5 14 7 22l-32 3c-4-21-16-35-41-35" id="av"/><path d="M177-190C167-65 218 103 67 71c-23-6-38-20-44-43l32-5c15 47 100 32 89-28v-30C133-14 115 1 83 1 29 1 15-40 15-95c0-56 16-97 71-98 29-1 48 16 59 35 1-10 0-23 2-32h30zM94-22c36 0 50-32 50-73 0-42-14-75-50-75-39 0-46 34-46 75s6 73 46 73" id="aw"/><g id="f"><use transform="matrix(0.05,0,0,0.05,0,0)" xlink:href="#au"/><use transform="matrix(0.05,0,0,0.05,12,0)" xlink:href="#ar"/><use transform="matrix(0.05,0,0,0.05,17.95,0)" xlink:href="#ak"/><use transform="matrix(0.05,0,0,0.05,27.950000000000003,0)" xlink:href="#as"/><use transform="matrix(0.05,0,0,0.05,37.95,0)" xlink:href="#ar"/><use transform="matrix(0.05,0,0,0.05,43.900000000000006,0)" xlink:href="#am"/><use transform="matrix(0.05,0,0,0.05,53.900000000000006,0)" xlink:href="#av"/><use transform="matrix(0.05,0,0,0.05,62.900000000000006,0)" xlink:href="#ak"/><use transform="matrix(0.05,0,0,0.05,72.9,0)" xlink:href="#aj"/><use transform="matrix(0.05,0,0,0.05,81.9,0)" xlink:href="#aj"/><use transform="matrix(0.05,0,0,0.05,90.9,0)" xlink:href="#ae"/><use transform="matrix(0.05,0,0,0.05,94.85000000000001,0)" xlink:href="#ao"/><use transform="matrix(0.05,0,0,0.05,104.85000000000001,0)" xlink:href="#aw"/></g><path d="M62-168c30 0 50 19 50 48S92-70 62-70c-29 0-48-21-48-50s20-48 48-48" id="ax"/><use transform="matrix(0.05,0,0,0.05,0,0)" xlink:href="#ax" id="g"/><path d="M141 0L90-78 38 0H4l68-98-65-92h35l48 74 47-74h35l-64 92 68 98h-35" id="ay"/><g id="h"><use transform="matrix(0.05,0,0,0.05,0,0)" xlink:href="#al"/><use transform="matrix(0.05,0,0,0.05,8.950000000000001,0)" xlink:href="#ak"/><use transform="matrix(0.05,0,0,0.05,18.950000000000003,0)" xlink:href="#ay"/><use transform="matrix(0.05,0,0,0.05,27.950000000000003,0)" xlink:href="#ah"/></g><path d="M190 0L58-211 59 0H30v-248h39L202-35l-2-213h31V0h-41" id="az"/><path d="M9 0v-24l116-142H16v-24h144v24L44-24h123V0H9" id="aA"/><g id="i"><use transform="matrix(0.05,0,0,0.05,0,0)" xlink:href="#az"/><use transform="matrix(0.05,0,0,0.05,12.950000000000001,0)" xlink:href="#am"/><use transform="matrix(0.05,0,0,0.05,22.950000000000003,0)" xlink:href="#ar"/><use transform="matrix(0.05,0,0,0.05,28.900000000000002,0)" xlink:href="#ac"/><use transform="matrix(0.05,0,0,0.05,43.85,0)" xlink:href="#ad"/><use transform="matrix(0.05,0,0,0.05,53.85,0)" xlink:href="#af"/><use transform="matrix(0.05,0,0,0.05,57.800000000000004,0)" xlink:href="#ae"/><use transform="matrix(0.05,0,0,0.05,61.75,0)" xlink:href="#aA"/><use transform="matrix(0.05,0,0,0.05,70.75,0)" xlink:href="#ad"/><use transform="matrix(0.05,0,0,0.05,80.75,0)" xlink:href="#ah"/><use transform="matrix(0.05,0,0,0.05,85.75,0)" xlink:href="#ae"/><use transform="matrix(0.05,0,0,0.05,89.7,0)" xlink:href="#am"/><use transform="matrix(0.05,0,0,0.05,99.7,0)" xlink:href="#ao"/></g><g id="j"><use transform="matrix(0.05,0,0,0.05,0,0)" xlink:href="#az"/><use transform="matrix(0.05,0,0,0.05,12.950000000000001,0)" xlink:href="#ad"/><use transform="matrix(0.05,0,0,0.05,22.950000000000003,0)" xlink:href="#ac"/><use transform="matrix(0.05,0,0,0.05,37.900000000000006,0)" xlink:href="#ak"/><use transform="matrix(0.05,0,0,0.05,47.900000000000006,0)" xlink:href="#ap"/></g><path d="M179-190L93 31C79 59 56 82 12 73V49c39 6 53-20 64-50L1-190h34L92-34l54-156h33" id="aB"/><g id="k"><use transform="matrix(0.05,0,0,0.05,0,0)" xlink:href="#ab"/><use transform="matrix(0.05,0,0,0.05,12,0)" xlink:href="#ao"/><use transform="matrix(0.05,0,0,0.05,22,0)" xlink:href="#ah"/><use transform="matrix(0.05,0,0,0.05,27,0)" xlink:href="#ae"/><use transform="matrix(0.05,0,0,0.05,30.950000000000003,0)" xlink:href="#ah"/><use transform="matrix(0.05,0,0,0.05,35.95,0)" xlink:href="#ae"/><use transform="matrix(0.05,0,0,0.05,39.900000000000006,0)" xlink:href="#ah"/><use transform="matrix(0.05,0,0,0.05,44.900000000000006,0)" xlink:href="#aB"/></g><path d="M233-177c-1 41-23 64-60 70L243 0h-38l-65-103H63V0H30v-248c88 3 205-21 203 71zM63-129c60-2 137 13 137-47 0-61-80-42-137-45v92" id="aC"/><g id="l"><use transform="matrix(0.05,0,0,0.05,0,0)" xlink:href="#aC"/><use transform="matrix(0.05,0,0,0.05,12.950000000000001,0)" xlink:href="#ak"/><use transform="matrix(0.05,0,0,0.05,22.950000000000003,0)" xlink:href="#av"/><use transform="matrix(0.05,0,0,0.05,31.950000000000003,0)" xlink:href="#am"/><use transform="matrix(0.05,0,0,0.05,41.95,0)" xlink:href="#aw"/><use transform="matrix(0.05,0,0,0.05,51.95,0)" xlink:href="#ao"/><use transform="matrix(0.05,0,0,0.05,61.95,0)" xlink:href="#ae"/><use transform="matrix(0.05,0,0,0.05,65.9,0)" xlink:href="#ah"/><use transform="matrix(0.05,0,0,0.05,70.9,0)" xlink:href="#ae"/><use transform="matrix(0.05,0,0,0.05,74.85000000000001,0)" xlink:href="#am"/><use transform="matrix(0.05,0,0,0.05,84.85000000000001,0)" xlink:href="#ao"/></g><g id="m"><use transform="matrix(0.05,0,0,0.05,0,0)" xlink:href="#ad"/><use transform="matrix(0.05,0,0,0.05,10,0)" xlink:href="#ao"/><use transform="matrix(0.05,0,0,0.05,20,0)" xlink:href="#ap"/></g><path d="M33 0v-38h34V0H33" id="aD"/><g id="n"><use transform="matrix(0.05,0,0,0.05,0,0)" xlink:href="#ab"/><use transform="matrix(0.05,0,0,0.05,12,0)" xlink:href="#ao"/><use transform="matrix(0.05,0,0,0.05,22,0)" xlink:href="#av"/><use transform="matrix(0.05,0,0,0.05,31,0)" xlink:href="#am"/><use transform="matrix(0.05,0,0,0.05,41,0)" xlink:href="#ap"/><use transform="matrix(0.05,0,0,0.05,51,0)" xlink:href="#ae"/><use transform="matrix(0.05,0,0,0.05,54.95,0)" xlink:href="#ao"/><use transform="matrix(0.05,0,0,0.05,64.95,0)" xlink:href="#aw"/><use transform="matrix(0.05,0,0,0.05,74.95,0)" xlink:href="#aD"/></g><path d="M185-189c-5-48-123-54-124 2 14 75 158 14 163 119 3 78-121 87-175 55-17-10-28-26-33-46l33-7c5 56 141 63 141-1 0-78-155-14-162-118-5-82 145-84 179-34 5 7 8 16 11 25" id="aE"/><g id="o"><use transform="matrix(0.05,0,0,0.05,0,0)" xlink:href="#aE"/><use transform="matrix(0.05,0,0,0.05,12,0)" xlink:href="#ah"/><use transform="matrix(0.05,0,0,0.05,17,0)" xlink:href="#am"/><use transform="matrix(0.05,0,0,0.05,27,0)" xlink:href="#as"/></g><path d="M266 0h-40l-56-210L115 0H75L2-248h35L96-30l15-64 43-154h32l59 218 59-218h35" id="aF"/><g id="p"><use transform="matrix(0.05,0,0,0.05,0,0)" xlink:href="#aF"/><use transform="matrix(0.05,0,0,0.05,16.599999999999998,0)" xlink:href="#am"/><use transform="matrix(0.05,0,0,0.05,26.599999999999994,0)" xlink:href="#ar"/><use transform="matrix(0.05,0,0,0.05,32.55,0)" xlink:href="#ap"/></g><path d="M108 0H70L1-190h34L89-25l56-165h34" id="aG"/><g id="q"><use transform="matrix(0.05,0,0,0.05,0,0)" xlink:href="#aC"/><use transform="matrix(0.05,0,0,0.05,12.950000000000001,0)" xlink:href="#ak"/><use transform="matrix(0.05,0,0,0.05,22.950000000000003,0)" xlink:href="#ac"/><use transform="matrix(0.05,0,0,0.05,37.900000000000006,0)" xlink:href="#am"/><use transform="matrix(0.05,0,0,0.05,47.900000000000006,0)" xlink:href="#aG"/><use transform="matrix(0.05,0,0,0.05,56.900000000000006,0)" xlink:href="#ad"/><use transform="matrix(0.05,0,0,0.05,66.9,0)" xlink:href="#af"/></g><path d="M205 0l-28-72H64L36 0H1l101-248h38L239 0h-34zm-38-99l-47-123c-12 45-31 82-46 123h93" id="aH"/><g id="r"><use transform="matrix(0.05,0,0,0.05,0,0)" xlink:href="#aH"/><use transform="matrix(0.05,0,0,0.05,12,0)" xlink:href="#av"/><use transform="matrix(0.05,0,0,0.05,21,0)" xlink:href="#ah"/><use transform="matrix(0.05,0,0,0.05,26,0)" xlink:href="#ae"/><use transform="matrix(0.05,0,0,0.05,29.950000000000003,0)" xlink:href="#am"/><use transform="matrix(0.05,0,0,0.05,39.95,0)" xlink:href="#ao"/></g><path d="M30 0v-248h33v221h125V0H30" id="aI"/><g id="s"><use transform="matrix(0.05,0,0,0.05,0,0)" xlink:href="#aI"/><use transform="matrix(0.05,0,0,0.05,10,0)" xlink:href="#am"/><use transform="matrix(0.05,0,0,0.05,20,0)" xlink:href="#aw"/></g><path d="M64 0c3-98 48-159 88-221H18v-27h164v26C143-157 98-101 97 0H64" id="aJ"/><g id="t"><use transform="matrix(0.05,0,0,0.05,0,0)" xlink:href="#aC"/><use transform="matrix(0.05,0,0,0.05,12.950000000000001,0)" xlink:href="#aJ"/></g><g id="u"><use transform="matrix(0.05,0,0,0.05,0,0)" xlink:href="#al"/><use transform="matrix(0.05,0,0,0.05,8.950000000000001,0)" xlink:href="#ak"/><use transform="matrix(0.05,0,0,0.05,18.950000000000003,0)" xlink:href="#ay"/><use transform="matrix(0.05,0,0,0.05,27.950000000000003,0)" xlink:href="#ah"/></g><g id="v"><use transform="matrix(0.05,0,0,0.05,0,0)" xlink:href="#aE"/><use transform="matrix(0.05,0,0,0.05,12,0)" xlink:href="#at"/><use transform="matrix(0.05,0,0,0.05,22,0)" xlink:href="#ac"/><use transform="matrix(0.05,0,0,0.05,36.95,0)" xlink:href="#ac"/><use transform="matrix(0.05,0,0,0.05,51.900000000000006,0)" xlink:href="#ad"/><use transform="matrix(0.05,0,0,0.05,61.900000000000006,0)" xlink:href="#ar"/><use transform="matrix(0.05,0,0,0.05,67.85000000000001,0)" xlink:href="#ae"/><use transform="matrix(0.05,0,0,0.05,71.80000000000001,0)" xlink:href="#aA"/><use transform="matrix(0.05,0,0,0.05,80.80000000000001,0)" xlink:href="#ad"/><use transform="matrix(0.05,0,0,0.05,90.80000000000001,0)" xlink:href="#ah"/><use transform="matrix(0.05,0,0,0.05,95.80000000000001,0)" xlink:href="#ae"/><use transform="matrix(0.05,0,0,0.05,99.75000000000001,0)" xlink:href="#am"/><use transform="matrix(0.05,0,0,0.05,109.75,0)" xlink:href="#ao"/></g><path d="M87 75C49 33 22-17 22-94c0-76 28-126 65-167h31c-38 41-64 92-64 168S80 34 118 75H87" id="aK"/><path d="M33-261c38 41 65 92 65 168S71 34 33 75H2C39 34 66-17 66-93S39-220 2-261h31" id="aL"/><g id="w"><use transform="matrix(0.05,0,0,0.05,0,0)" xlink:href="#aK"/><use transform="matrix(0.05,0,0,0.05,5.95,0)" xlink:href="#au"/><use transform="matrix(0.05,0,0,0.05,17.95,0)" xlink:href="#ar"/><use transform="matrix(0.05,0,0,0.05,23.9,0)" xlink:href="#ak"/><use transform="matrix(0.05,0,0,0.05,33.9,0)" xlink:href="#ap"/><use transform="matrix(0.05,0,0,0.05,43.9,0)" xlink:href="#ae"/><use transform="matrix(0.05,0,0,0.05,47.85,0)" xlink:href="#ah"/><use transform="matrix(0.05,0,0,0.05,52.85,0)" xlink:href="#ae"/><use transform="matrix(0.05,0,0,0.05,56.800000000000004,0)" xlink:href="#am"/><use transform="matrix(0.05,0,0,0.05,66.80000000000001,0)" xlink:href="#ao"/><use transform="matrix(0.05,0,0,0.05,76.80000000000001,0)" xlink:href="#aL"/></g><path d="M140-251c81 0 123 46 123 126C263-53 228-8 163 1c7 30 30 48 69 40v23c-55 16-95-15-103-61C56-3 17-48 17-125c0-80 42-126 123-126zm0 227c63 0 89-41 89-101s-29-99-89-99c-61 0-89 39-89 99S79-25 140-24" id="aM"/><g id="x"><use transform="matrix(0.05,0,0,0.05,0,0)" xlink:href="#aM"/><use transform="matrix(0.05,0,0,0.05,14,0)" xlink:href="#at"/><use transform="matrix(0.05,0,0,0.05,24,0)" xlink:href="#ak"/><use transform="matrix(0.05,0,0,0.05,34,0)" xlink:href="#ar"/><use transform="matrix(0.05,0,0,0.05,39.95,0)" xlink:href="#aB"/></g><path d="M240 0l2-218c-23 76-54 145-80 218h-23L58-218 59 0H30v-248h44l77 211c21-75 51-140 76-211h43V0h-30" id="aN"/><g id="y"><use transform="matrix(0.05,0,0,0.05,0,0)" xlink:href="#aN"/><use transform="matrix(0.05,0,0,0.05,14.950000000000001,0)" xlink:href="#am"/><use transform="matrix(0.05,0,0,0.05,24.950000000000003,0)" xlink:href="#ap"/><use transform="matrix(0.05,0,0,0.05,34.95,0)" xlink:href="#ak"/><use transform="matrix(0.05,0,0,0.05,44.95,0)" xlink:href="#af"/></g><g id="z"><use transform="matrix(0.05,0,0,0.05,0,0)" xlink:href="#al"/><use transform="matrix(0.05,0,0,0.05,10.3,0)" xlink:href="#ar"/><use transform="matrix(0.05,0,0,0.05,16.25,0)" xlink:href="#ad"/><use transform="matrix(0.05,0,0,0.05,26.25,0)" xlink:href="#ae"/><use transform="matrix(0.05,0,0,0.05,30.200000000000003,0)" xlink:href="#ao"/><use transform="matrix(0.05,0,0,0.05,40.2,0)" xlink:href="#ae"/><use transform="matrix(0.05,0,0,0.05,44.150000000000006,0)" xlink:href="#ao"/><use transform="matrix(0.05,0,0,0.05,54.150000000000006,0)" xlink:href="#aw"/></g><g id="A"><use transform="matrix(0.05,0,0,0.05,0,0)" xlink:href="#aE"/><use transform="matrix(0.05,0,0,0.05,12,0)" xlink:href="#ah"/><use transform="matrix(0.05,0,0,0.05,17,0)" xlink:href="#am"/><use transform="matrix(0.05,0,0,0.05,27,0)" xlink:href="#ar"/><use transform="matrix(0.05,0,0,0.05,32.95,0)" xlink:href="#ak"/><use transform="matrix(0.05,0,0,0.05,42.95,0)" xlink:href="#ap"/></g><g id="B"><use transform="matrix(0.05,0,0,0.05,0,0)" xlink:href="#aN"/><use transform="matrix(0.05,0,0,0.05,14.950000000000001,0)" xlink:href="#am"/><use transform="matrix(0.05,0,0,0.05,24.950000000000003,0)" xlink:href="#ap"/><use transform="matrix(0.05,0,0,0.05,34.95,0)" xlink:href="#ak"/><use transform="matrix(0.05,0,0,0.05,44.95,0)" xlink:href="#af"/><use transform="matrix(0.05,0,0,0.05,48.900000000000006,0)" xlink:href="#aj"/></g><path d="M33 0v-248h34V0H33" id="aO"/><g id="C"><use transform="matrix(0.05,0,0,0.05,0,0)" xlink:href="#aO"/><use transform="matrix(0.05,0,0,0.05,5,0)" xlink:href="#ah"/><use transform="matrix(0.05,0,0,0.05,10,0)" xlink:href="#ak"/><use transform="matrix(0.05,0,0,0.05,20,0)" xlink:href="#ar"/><use transform="matrix(0.05,0,0,0.05,25.950000000000003,0)" xlink:href="#ad"/><use transform="matrix(0.05,0,0,0.05,35.95,0)" xlink:href="#ah"/><use transform="matrix(0.05,0,0,0.05,40.95,0)" xlink:href="#ae"/><use transform="matrix(0.05,0,0,0.05,44.900000000000006,0)" xlink:href="#aG"/><use transform="matrix(0.05,0,0,0.05,53.900000000000006,0)" xlink:href="#ak"/></g><g id="D"><use transform="matrix(0.05,0,0,0.05,0,0)" xlink:href="#au"/><use transform="matrix(0.05,0,0,0.05,12,0)" xlink:href="#ar"/><use transform="matrix(0.05,0,0,0.05,17.95,0)" xlink:href="#am"/><use transform="matrix(0.05,0,0,0.05,27.950000000000003,0)" xlink:href="#av"/><use transform="matrix(0.05,0,0,0.05,36.95,0)" xlink:href="#ak"/><use transform="matrix(0.05,0,0,0.05,46.95,0)" xlink:href="#aj"/><use transform="matrix(0.05,0,0,0.05,55.95,0)" xlink:href="#aj"/></g><path d="M140-251c81 0 123 46 123 126C263-46 219 4 140 4 59 4 17-45 17-125s42-126 123-126zm0 227c63 0 89-41 89-101s-29-99-89-99c-61 0-89 39-89 99S79-25 140-24" id="aP"/><g id="E"><use transform="matrix(0.05,0,0,0.05,0,0)" xlink:href="#aP"/><use transform="matrix(0.05,0,0,0.05,14,0)" xlink:href="#at"/><use transform="matrix(0.05,0,0,0.05,24,0)" xlink:href="#ah"/><use transform="matrix(0.05,0,0,0.05,29,0)" xlink:href="#as"/><use transform="matrix(0.05,0,0,0.05,39,0)" xlink:href="#at"/><use transform="matrix(0.05,0,0,0.05,49,0)" xlink:href="#ah"/></g><path d="M16-82v-28h88v28H16" id="aQ"/><g id="F"><use transform="matrix(0.05,0,0,0.05,0,0)" xlink:href="#aC"/><use transform="matrix(0.05,0,0,0.05,12.950000000000001,0)" xlink:href="#ak"/><use transform="matrix(0.05,0,0,0.05,22.950000000000003,0)" xlink:href="#aQ"/><use transform="matrix(0.05,0,0,0.05,28.900000000000002,0)" xlink:href="#ak"/><use transform="matrix(0.05,0,0,0.05,38.900000000000006,0)" xlink:href="#ao"/><use transform="matrix(0.05,0,0,0.05,48.900000000000006,0)" xlink:href="#av"/><use transform="matrix(0.05,0,0,0.05,57.900000000000006,0)" xlink:href="#am"/><use transform="matrix(0.05,0,0,0.05,67.9,0)" xlink:href="#ap"/><use transform="matrix(0.05,0,0,0.05,77.9,0)" xlink:href="#ae"/><use transform="matrix(0.05,0,0,0.05,81.85000000000001,0)" xlink:href="#ao"/><use transform="matrix(0.05,0,0,0.05,91.85000000000001,0)" xlink:href="#aw"/></g><path d="M101-234c-31-9-42 10-38 44h38v23H63V0H32v-167H5v-23h27c-7-52 17-82 69-68v24" id="aR"/><g id="G"><use transform="matrix(0.05,0,0,0.05,0,0)" xlink:href="#aR"/><use transform="matrix(0.05,0,0,0.05,5,0)" xlink:href="#am"/><use transform="matrix(0.05,0,0,0.05,15,0)" xlink:href="#ar"/><use transform="matrix(0.05,0,0,0.05,20.95,0)" xlink:href="#ac"/><use transform="matrix(0.05,0,0,0.05,35.9,0)" xlink:href="#ad"/><use transform="matrix(0.05,0,0,0.05,45.9,0)" xlink:href="#ah"/><use transform="matrix(0.05,0,0,0.05,50.9,0)" xlink:href="#ah"/><use transform="matrix(0.05,0,0,0.05,55.900000000000006,0)" xlink:href="#ae"/><use transform="matrix(0.05,0,0,0.05,59.85,0)" xlink:href="#ao"/><use transform="matrix(0.05,0,0,0.05,69.85,0)" xlink:href="#aw"/></g><g id="H"><use transform="matrix(0.05,0,0,0.05,0,0)" xlink:href="#au"/><use transform="matrix(0.05,0,0,0.05,12,0)" xlink:href="#ar"/><use transform="matrix(0.05,0,0,0.05,17.95,0)" xlink:href="#ak"/><use transform="matrix(0.05,0,0,0.05,27.950000000000003,0)" xlink:href="#aj"/><use transform="matrix(0.05,0,0,0.05,36.95,0)" xlink:href="#ak"/><use transform="matrix(0.05,0,0,0.05,46.95,0)" xlink:href="#ao"/><use transform="matrix(0.05,0,0,0.05,56.95,0)" xlink:href="#ah"/><use transform="matrix(0.05,0,0,0.05,61.95,0)" xlink:href="#ad"/><use transform="matrix(0.05,0,0,0.05,71.95,0)" xlink:href="#ah"/><use transform="matrix(0.05,0,0,0.05,76.95,0)" xlink:href="#ae"/><use transform="matrix(0.05,0,0,0.05,80.9,0)" xlink:href="#am"/><use transform="matrix(0.05,0,0,0.05,90.9,0)" xlink:href="#ao"/></g><path d="M27 0v-27h64v-190l-56 39v-29l58-41h29v221h61V0H27" id="aS"/><g id="I"><use transform="matrix(0.05,0,0,0.05,0,0)" xlink:href="#aC"/><use transform="matrix(0.05,0,0,0.05,12.950000000000001,0)" xlink:href="#aS"/></g><path d="M54-142c48-35 137-8 131 61C196 18 31 33 14-55l32-4c7 23 22 37 52 37 35-1 51-22 54-58 4-55-73-65-99-34H22l8-134h141v27H59" id="aT"/><g id="J"><use transform="matrix(0.05,0,0,0.05,0,0)" xlink:href="#aC"/><use transform="matrix(0.05,0,0,0.05,12.950000000000001,0)" xlink:href="#aT"/></g><path d="M110-160c48 1 74 30 74 79 0 53-28 85-80 85-65 0-83-55-86-122-5-90 50-162 133-122 14 7 22 21 27 39l-31 6c-5-40-67-38-82-6-9 19-15 44-15 74 11-20 30-34 60-33zm-7 138c34 0 49-23 49-58s-16-56-50-56c-29 0-50 16-49 49 1 36 15 65 50 65" id="aU"/><g id="K"><use transform="matrix(0.05,0,0,0.05,0,0)" xlink:href="#aC"/><use transform="matrix(0.05,0,0,0.05,12.950000000000001,0)" xlink:href="#aU"/></g><path d="M134-131c28 9 52 24 51 62-1 50-34 73-85 73S17-19 16-69c0-36 21-54 49-61-75-25-45-126 34-121 46 3 78 18 79 63 0 33-17 51-44 57zm-34-11c31 1 46-15 46-44 0-28-17-43-47-42-29 0-46 13-45 42 1 28 16 44 46 44zm1 122c35 0 51-18 51-52 0-30-18-46-53-46-33 0-51 17-51 47 0 34 19 51 53 51" id="aV"/><g id="L"><use transform="matrix(0.05,0,0,0.05,0,0)" xlink:href="#aC"/><use transform="matrix(0.05,0,0,0.05,12.950000000000001,0)" xlink:href="#aV"/></g><path d="M99-251c64 0 84 50 84 122C183-37 130 33 47-8c-14-7-20-23-25-40l30-5c6 39 69 39 84 7 9-19 16-44 16-74-10 22-31 35-62 35-49 0-73-33-73-83 0-54 28-83 82-83zm-1 141c31-1 51-18 51-49 0-36-14-67-51-67-34 0-49 23-49 58 0 34 15 58 49 58" id="aW"/><g id="M"><use transform="matrix(0.05,0,0,0.05,0,0)" xlink:href="#aC"/><use transform="matrix(0.05,0,0,0.05,12.950000000000001,0)" xlink:href="#aW"/><use transform="matrix(0.05,0,0,0.05,22.950000000000003,0)" xlink:href="#aQ"/><use transform="matrix(0.05,0,0,0.05,28.900000000000002,0)" xlink:href="#aC"/><use transform="matrix(0.05,0,0,0.05,41.85,0)" xlink:href="#aS"/><use transform="matrix(0.05,0,0,0.05,50.5,0)" xlink:href="#aS"/></g><path d="M126-127c33 6 58 20 58 59 0 88-139 92-164 29-3-8-5-16-6-25l32-3c6 27 21 44 54 44 32 0 52-15 52-46 0-38-36-46-79-43v-28c39 1 72-4 72-42 0-27-17-43-46-43-28 0-47 15-49 41l-32-3c6-42 35-63 81-64 48-1 79 21 79 65 0 36-21 52-52 59" id="aX"/><g id="N"><use transform="matrix(0.05,0,0,0.05,0,0)" xlink:href="#aC"/><use transform="matrix(0.05,0,0,0.05,12.950000000000001,0)" xlink:href="#aS"/><use transform="matrix(0.05,0,0,0.05,22.950000000000003,0)" xlink:href="#aX"/><use transform="matrix(0.05,0,0,0.05,32.95,0)" xlink:href="#aQ"/><use transform="matrix(0.05,0,0,0.05,38.900000000000006,0)" xlink:href="#aC"/><use transform="matrix(0.05,0,0,0.05,51.85,0)" xlink:href="#aS"/><use transform="matrix(0.05,0,0,0.05,61.85,0)" xlink:href="#aU"/></g><path d="M101-251c82-7 93 87 43 132L82-64C71-53 59-42 53-27h129V0H18c2-99 128-94 128-182 0-28-16-43-45-43s-46 15-49 41l-32-3c6-41 34-60 81-64" id="aY"/><g id="O"><use transform="matrix(0.05,0,0,0.05,0,0)" xlink:href="#aC"/><use transform="matrix(0.05,0,0,0.05,12.950000000000001,0)" xlink:href="#aS"/><use transform="matrix(0.05,0,0,0.05,22.950000000000003,0)" xlink:href="#aY"/></g><g id="P"><use transform="matrix(0.05,0,0,0.05,0,0)" xlink:href="#aI"/><use transform="matrix(0.05,0,0,0.05,10,0)" xlink:href="#ae"/><use transform="matrix(0.05,0,0,0.05,13.949999999999998,0)" xlink:href="#ao"/><use transform="matrix(0.05,0,0,0.05,23.95,0)" xlink:href="#an"/></g><g id="Q"><use transform="matrix(0.05,0,0,0.05,0,0)" xlink:href="#ah"/><use transform="matrix(0.05,0,0,0.05,5,0)" xlink:href="#am"/></g><g id="R"><use transform="matrix(0.05,0,0,0.05,0,0)" xlink:href="#ap"/><use transform="matrix(0.05,0,0,0.05,10,0)" xlink:href="#ad"/><use transform="matrix(0.05,0,0,0.05,20,0)" xlink:href="#ah"/><use transform="matrix(0.05,0,0,0.05,25,0)" xlink:href="#ad"/><use transform="matrix(0.05,0,0,0.05,35,0)" xlink:href="#ai"/><use transform="matrix(0.05,0,0,0.05,45,0)" xlink:href="#ad"/><use transform="matrix(0.05,0,0,0.05,55,0)" xlink:href="#aj"/><use transform="matrix(0.05,0,0,0.05,64,0)" xlink:href="#ak"/></g><g id="T"><use transform="matrix(0.05,0,0,0.05,0,0)" xlink:href="#aC"/><use transform="matrix(0.05,0,0,0.05,12.950000000000001,0)" xlink:href="#aS"/><use transform="matrix(0.05,0,0,0.05,22.950000000000003,0)" xlink:href="#aJ"/></g><g id="U"><use transform="matrix(0.05,0,0,0.05,0,0)" xlink:href="#aE"/><use transform="matrix(0.05,0,0,0.05,12,0)" xlink:href="#ah"/><use transform="matrix(0.05,0,0,0.05,17,0)" xlink:href="#ar"/><use transform="matrix(0.05,0,0,0.05,22.95,0)" xlink:href="#ak"/><use transform="matrix(0.05,0,0,0.05,32.95,0)" xlink:href="#ad"/><use transform="matrix(0.05,0,0,0.05,42.95,0)" xlink:href="#ac"/><use transform="matrix(0.05,0,0,0.05,57.900000000000006,0)" xlink:href="#ae"/><use transform="matrix(0.05,0,0,0.05,61.85,0)" xlink:href="#ao"/><use transform="matrix(0.05,0,0,0.05,71.85000000000001,0)" xlink:href="#aw"/></g><g id="V"><use transform="matrix(0.05,0,0,0.05,0,0)" xlink:href="#as"/><use transform="matrix(0.05,0,0,0.05,10,0)" xlink:href="#ar"/><use transform="matrix(0.05,0,0,0.05,15.949999999999998,0)" xlink:href="#am"/><use transform="matrix(0.05,0,0,0.05,25.950000000000003,0)" xlink:href="#av"/><use transform="matrix(0.05,0,0,0.05,34.95,0)" xlink:href="#ak"/><use transform="matrix(0.05,0,0,0.05,44.95,0)" xlink:href="#aj"/><use transform="matrix(0.05,0,0,0.05,53.95,0)" xlink:href="#aj"/></g><g id="W"><use transform="matrix(0.05,0,0,0.05,0,0)" xlink:href="#aC"/><use transform="matrix(0.05,0,0,0.05,12.950000000000001,0)" xlink:href="#aY"/></g><use transform="matrix(0.05,0,0,0.05,0,0)" xlink:href="#aQ" id="X"/><path d="M155-56V0h-30v-56H8v-25l114-167h33v167h35v25h-35zm-30-156c-27 46-58 90-88 131h88v-131" id="aZ"/><g id="Y"><use transform="matrix(0.05,0,0,0.05,0,0)" xlink:href="#aC"/><use transform="matrix(0.05,0,0,0.05,12.950000000000001,0)" xlink:href="#aZ"/></g><g id="Z"><use transform="matrix(0.05,0,0,0.05,0,0)" xlink:href="#aC"/><use transform="matrix(0.05,0,0,0.05,12.950000000000001,0)" xlink:href="#ak"/><use transform="matrix(0.05,0,0,0.05,22.950000000000003,0)" xlink:href="#as"/><use transform="matrix(0.05,0,0,0.05,32.95,0)" xlink:href="#am"/><use transform="matrix(0.05,0,0,0.05,42.95,0)" xlink:href="#ar"/><use transform="matrix(0.05,0,0,0.05,48.900000000000006,0)" xlink:href="#ah"/></g><g id="aa"><use transform="matrix(0.05,0,0,0.05,0,0)" xlink:href="#aC"/><use transform="matrix(0.05,0,0,0.05,12.950000000000001,0)" xlink:href="#aS"/><use transform="matrix(0.05,0,0,0.05,22.950000000000003,0)" xlink:href="#aV"/></g></defs></g></svg>